<svg width="24" height="24" viewBox="0 0 24 24" fill="none" xmlns="http://www.w3.org/2000/svg">
<rect width="24" height="24" rx="4" fill="#E2FEF7"/>
<path d="M17.5536 9.19793L14.7662 6.42688L15.8605 5.35155C16.0945 5.11718 16.3872 5 16.7384 5C17.0892 5 17.3815 5.11718 17.6155 5.35155L18.6273 6.36484C18.8613 6.613 18.9851 6.90582 18.9989 7.24331C19.0127 7.58135 18.8957 7.86755 18.6479 8.10192L17.5536 9.19793ZM5.74331 19C5.53683 19 5.36147 18.9278 5.21721 18.7833C5.0724 18.6382 5 18.4623 5 18.2555V16.5185C5 16.422 5.01734 16.329 5.05203 16.2397C5.08617 16.1498 5.14453 16.0635 5.22712 15.9808L13.8784 7.3161L16.6658 10.1078L12.3401 14.4402L8.01452 18.7725C7.93193 18.8552 7.84603 18.914 7.75684 18.9487C7.66709 18.9829 7.57404 19 7.47768 19H5.74331Z" fill="#089C78"/>
</svg>
