<svg width="16" height="16" viewBox="0 0 16 16" fill="none" xmlns="http://www.w3.org/2000/svg">
<g clip-path="url(#clip0_1179_2098)">
<path d="M7.99999 13.3641C4.53803 13.3641 1.46098 11.3374 0.161803 8.20024C-0.0536076 7.66599 -0.0536076 7.05786 0.159849 6.52763C0.582611 5.49528 1.2369 4.53887 2.05251 3.75929C2.25192 3.56855 2.5693 3.57587 2.75943 3.77529C2.95017 3.9747 2.94346 4.29147 2.74343 4.48221C2.02845 5.16581 1.45561 6.00339 1.08682 6.90436C0.970081 7.1945 0.970081 7.52995 1.08817 7.82205C2.22994 10.579 4.94358 12.3637 7.99999 12.3637C8.85968 12.3637 9.70593 12.2183 10.5142 11.9322C10.7764 11.8408 11.0604 11.9763 11.1531 12.237C11.2452 12.4978 11.1092 12.7832 10.8483 12.8759C9.93209 13.1994 8.97373 13.3641 7.99999 13.3641Z" fill="#758B89"/>
<path d="M7.79391 10.0161C7.77852 10.0161 7.76313 10.0155 7.74787 10.0141C6.47275 9.89801 5.46371 8.88837 5.34758 7.61386C5.3223 7.33849 5.52575 7.09572 5.80051 7.07032C6.07123 7.04297 6.31864 7.24776 6.34404 7.52325C6.41474 8.30417 7.05756 8.94637 7.83848 9.01769C8.11397 9.04309 8.31668 9.28585 8.2914 9.56122C8.26735 9.82133 8.04925 10.0161 7.79391 10.0161Z" fill="#758B89"/>
<path d="M14.8357 14.698C14.7076 14.698 14.5797 14.6493 14.4822 14.5512L0.8106 0.879584C0.615217 0.6842 0.615217 0.367312 0.8106 0.171928C1.00598 -0.0234553 1.32275 -0.0234553 1.51813 0.171928L15.1899 13.8437C15.3852 14.039 15.3852 14.3558 15.1899 14.5512C15.0918 14.6493 14.9637 14.698 14.8357 14.698Z" fill="#758B89"/>
<path d="M12.2761 12.1371C12.1087 12.1371 11.9445 12.0531 11.8499 11.8997C11.7052 11.6643 11.7786 11.3568 12.0133 11.2115C13.3225 10.4044 14.3261 9.23077 14.915 7.81693C15.0304 7.53008 15.0304 7.19463 14.913 6.90192C13.7706 4.14481 11.0569 2.36023 8.00047 2.36023C6.56464 2.36023 5.17949 2.75771 3.99364 3.50933C3.75954 3.65672 3.45145 3.5887 3.30344 3.35522C3.15544 3.12186 3.2248 2.81303 3.45755 2.66503C4.80399 1.81132 6.37451 1.35986 8.00047 1.35986C11.4624 1.35986 14.5395 3.3866 15.8387 6.52373C16.0541 7.05799 16.0541 7.66612 15.8407 8.19634C15.1678 9.81021 14.0267 11.1454 12.5381 12.0631C12.4561 12.1131 12.3655 12.1371 12.2761 12.1371Z" fill="#758B89"/>
<path d="M9.5342 9.396C9.40757 9.396 9.28081 9.34801 9.18349 9.25264C8.98664 9.0586 8.98407 8.74244 9.17738 8.54498C9.49354 8.22358 9.66755 7.80338 9.66755 7.36193C9.66755 6.4429 8.91935 5.6947 8.00032 5.6947C7.55887 5.6947 7.13867 5.86871 6.81727 6.18487C6.62115 6.37891 6.30439 6.37683 6.10961 6.17876C5.91557 5.98204 5.91826 5.66527 6.1156 5.47123C6.62518 4.97044 7.29474 4.69434 8.00032 4.69434C9.47156 4.69434 10.6679 5.89069 10.6679 7.36193C10.6679 8.06751 10.3918 8.73707 9.89041 9.24665C9.79296 9.34593 9.66364 9.396 9.5342 9.396Z" fill="#758B89"/>
</g>
<defs>
<clipPath id="clip0_1179_2098">
<rect width="16" height="16" fill="white"/>
</clipPath>
</defs>
</svg>
