<svg width="14" height="14" viewBox="0 0 14 14" fill="none" xmlns="http://www.w3.org/2000/svg">
<path d="M7.58359 3.50029C7.58359 3.82243 7.32243 4.08359 7.00029 4.08359C6.67815 4.08359 6.41699 3.82243 6.41699 3.50029C6.41699 3.17815 6.67815 2.91699 7.00029 2.91699C7.32243 2.91699 7.58359 3.17815 7.58359 3.50029Z" fill="#758B89"/>
<path d="M7.00029 11.0833C6.75879 11.0833 6.56279 10.8873 6.56279 10.6458V6.125H5.97949C5.73799 6.125 5.54199 5.929 5.54199 5.6875C5.54199 5.446 5.73799 5.25 5.97949 5.25H7.00029C7.24179 5.25 7.43779 5.446 7.43779 5.6875V10.6458C7.43779 10.8873 7.24179 11.0833 7.00029 11.0833Z" fill="#758B89"/>
<path d="M7 14C3.14005 14 0 10.86 0 7C0 3.14005 3.14005 0 7 0C10.86 0 14 3.14005 14 7C14 10.86 10.86 14 7 14ZM7 0.875C3.62251 0.875 0.875 3.62251 0.875 7C0.875 10.3775 3.62251 13.125 7 13.125C10.3775 13.125 13.125 10.3775 13.125 7C13.125 3.62251 10.3775 0.875 7 0.875Z" fill="#758B89"/>
<path d="M8.3125 11.083H5.6875C5.446 11.083 5.25 10.887 5.25 10.6455C5.25 10.404 5.446 10.208 5.6875 10.208H8.3125C8.554 10.208 8.75 10.404 8.75 10.6455C8.75 10.887 8.554 11.083 8.3125 11.083Z" fill="#758B89"/>
</svg>
