<svg width="175" height="28" viewBox="0 0 175 28" fill="none" xmlns="http://www.w3.org/2000/svg">
<circle cx="14" cy="14" r="10.5" fill="white" stroke="#09B48B" stroke-width="7"/>
<path d="M52.6074 21H50.1475L49.2021 19.8828C47.9059 20.7708 46.4307 21.2148 44.7764 21.2148C43.6878 21.2148 42.6602 21.0107 41.6934 20.6025C40.7337 20.1943 39.9102 19.6393 39.2227 18.9375C38.5352 18.2285 37.9909 17.3835 37.5898 16.4023C37.1888 15.4141 36.9883 14.3649 36.9883 13.2549C36.9883 11.7939 37.3249 10.4619 37.998 9.25879C38.6784 8.05566 39.613 7.11035 40.8018 6.42285C41.9977 5.72819 43.3226 5.38086 44.7764 5.38086C45.8577 5.38086 46.8783 5.58496 47.8379 5.99316C48.8047 6.39421 49.6318 6.94564 50.3193 7.64746C51.014 8.34212 51.5618 9.17643 51.9629 10.1504C52.3639 11.1243 52.5645 12.1592 52.5645 13.2549C52.5645 15.3532 51.9128 17.1436 50.6094 18.626L52.6074 21ZM44.7764 19.1738C45.9222 19.1738 46.9427 18.8659 47.8379 18.25L44.1855 13.8672H46.624L49.2021 16.9502C49.9899 15.8903 50.3838 14.6585 50.3838 13.2549C50.3838 12.1807 50.1367 11.196 49.6426 10.3008C49.1556 9.4056 48.4824 8.70378 47.623 8.19531C46.7637 7.67969 45.8148 7.42188 44.7764 7.42188C43.738 7.42188 42.7891 7.67969 41.9297 8.19531C41.0703 8.70378 40.3936 9.4056 39.8994 10.3008C39.4124 11.196 39.1689 12.1807 39.1689 13.2549C39.1689 14.9235 39.7061 16.3271 40.7803 17.4658C41.8617 18.6045 43.1937 19.1738 44.7764 19.1738ZM63.5103 10.2686H65.5406V21H63.5103V19.4424C63.1809 19.9795 62.6975 20.4092 62.0601 20.7314C61.4227 21.0537 60.7352 21.2148 59.9976 21.2148C58.6656 21.2148 57.5985 20.778 56.7964 19.9043C55.9944 19.0306 55.5933 17.8704 55.5933 16.4238V10.2686H57.6451V16.1123C57.6451 17.0576 57.8993 17.8132 58.4078 18.3789C58.9234 18.9375 59.6073 19.2168 60.4595 19.2168C61.0897 19.2168 61.6806 19.0628 62.232 18.7549C62.7906 18.4398 63.2167 18.0208 63.5103 17.498V10.2686ZM69.8478 5.44531C70.213 5.44531 70.5317 5.58138 70.8038 5.85352C71.076 6.12565 71.212 6.44434 71.212 6.80957C71.212 7.18197 71.076 7.50423 70.8038 7.77637C70.5317 8.04134 70.213 8.17383 69.8478 8.17383C69.4682 8.17383 69.1459 8.04134 68.881 7.77637C68.616 7.51139 68.4835 7.18913 68.4835 6.80957C68.4835 6.44434 68.616 6.12565 68.881 5.85352C69.1531 5.58138 69.4754 5.44531 69.8478 5.44531ZM68.8165 10.2686H70.8683V21H68.8165V10.2686ZM83.9948 18.3574C83.5723 19.2311 82.9242 19.9258 82.0505 20.4414C81.1839 20.957 80.2028 21.2148 79.1071 21.2148C78.0759 21.2148 77.1341 20.9714 76.2819 20.4844C75.4297 19.9974 74.7601 19.3278 74.2731 18.4756C73.7861 17.6234 73.5427 16.6816 73.5427 15.6504C73.5427 14.612 73.7861 13.6631 74.2731 12.8037C74.7601 11.9443 75.4297 11.2712 76.2819 10.7842C77.1341 10.29 78.0759 10.043 79.1071 10.043C80.1384 10.043 81.0622 10.2829 81.8786 10.7627C82.7022 11.2354 83.3037 11.8691 83.6833 12.6641L81.943 13.6094C81.721 13.1152 81.3522 12.7214 80.8366 12.4277C80.3281 12.127 79.7516 11.9766 79.1071 11.9766C78.0902 11.9766 77.238 12.3311 76.5505 13.04C75.863 13.7419 75.5192 14.612 75.5192 15.6504C75.5192 16.6745 75.863 17.5374 76.5505 18.2393C77.238 18.9339 78.0902 19.2812 79.1071 19.2812C79.8018 19.2812 80.4248 19.1273 80.9762 18.8193C81.5277 18.5114 81.9395 18.0853 82.2116 17.541L83.9948 18.3574ZM96.0686 21H93.4045L88.4416 15.876V21H86.3899V5.5957H88.4416V14.9736L93.1897 10.2686H95.7141L90.4612 15.4141L96.0686 21ZM115.296 21H112.75L108.658 14.5977H106.036V21H103.899V5.5957H109.581C110.878 5.5957 111.973 6.02539 112.869 6.88477C113.771 7.74414 114.222 8.80404 114.222 10.0645C114.222 11.1745 113.928 12.1198 113.341 12.9004C112.754 13.6738 111.963 14.1895 110.967 14.4473L115.296 21ZM106.015 7.62598L106.036 12.5781H109.538C110.276 12.5781 110.885 12.3418 111.365 11.8691C111.844 11.3893 112.084 10.7878 112.084 10.0645C112.084 9.36263 111.844 8.78255 111.365 8.32422C110.885 7.85872 110.276 7.62598 109.538 7.62598H106.015ZM126.726 15.167C126.726 15.3675 126.711 15.6468 126.683 16.0049H118.1C118.193 17.0361 118.565 17.8597 119.217 18.4756C119.876 19.0843 120.699 19.3887 121.687 19.3887C122.368 19.3887 122.991 19.2454 123.557 18.959C124.122 18.6725 124.541 18.2894 124.813 17.8096L126.435 18.8623C126.027 19.5928 125.397 20.1693 124.545 20.5918C123.693 21.0072 122.719 21.2148 121.623 21.2148C120.871 21.2148 120.155 21.0716 119.475 20.7852C118.794 20.4987 118.207 20.1084 117.713 19.6143C117.226 19.113 116.839 18.515 116.553 17.8203C116.266 17.1185 116.123 16.3737 116.123 15.5859C116.123 14.569 116.363 13.638 116.843 12.793C117.323 11.9408 117.981 11.2712 118.819 10.7842C119.664 10.29 120.592 10.043 121.601 10.043C123.041 10.043 124.255 10.5371 125.243 11.5254C126.231 12.5137 126.726 13.7275 126.726 15.167ZM118.185 14.4688H124.631C124.566 13.6667 124.244 13.0114 123.664 12.5029C123.084 11.9945 122.368 11.7402 121.516 11.7402C120.67 11.7402 119.951 11.9873 119.356 12.4814C118.762 12.9756 118.372 13.638 118.185 14.4688ZM139.025 18.3574C138.602 19.2311 137.954 19.9258 137.081 20.4414C136.214 20.957 135.233 21.2148 134.137 21.2148C133.106 21.2148 132.164 20.9714 131.312 20.4844C130.46 19.9974 129.79 19.3278 129.303 18.4756C128.816 17.6234 128.573 16.6816 128.573 15.6504C128.573 14.612 128.816 13.6631 129.303 12.8037C129.79 11.9443 130.46 11.2712 131.312 10.7842C132.164 10.29 133.106 10.043 134.137 10.043C135.168 10.043 136.092 10.2829 136.909 10.7627C137.732 11.2354 138.334 11.8691 138.713 12.6641L136.973 13.6094C136.751 13.1152 136.382 12.7214 135.867 12.4277C135.358 12.127 134.782 11.9766 134.137 11.9766C133.12 11.9766 132.268 12.3311 131.581 13.04C130.893 13.7419 130.549 14.612 130.549 15.6504C130.549 16.6745 130.893 17.5374 131.581 18.2393C132.268 18.9339 133.12 19.2812 134.137 19.2812C134.832 19.2812 135.455 19.1273 136.006 18.8193C136.558 18.5114 136.97 18.0853 137.242 17.541L139.025 18.3574ZM146.286 10.043C146.659 10.043 147.052 10.1003 147.468 10.2148L147.36 12.1377C146.988 12.0016 146.583 11.9336 146.147 11.9336C145.681 11.9336 145.194 12.109 144.686 12.46C144.184 12.8037 143.78 13.2656 143.472 13.8457V21H141.42V10.2686H143.472V11.8262C143.765 11.2962 144.177 10.8665 144.707 10.5371C145.237 10.2077 145.763 10.043 146.286 10.043ZM157.554 10.2686H159.585V21H157.554V19.4424C157.225 19.9795 156.741 20.4092 156.104 20.7314C155.467 21.0537 154.779 21.2148 154.042 21.2148C152.71 21.2148 151.643 20.778 150.84 19.9043C150.038 19.0306 149.637 17.8704 149.637 16.4238V10.2686H151.689V16.1123C151.689 17.0576 151.943 17.8132 152.452 18.3789C152.967 18.9375 153.651 19.2168 154.504 19.2168C155.134 19.2168 155.725 19.0628 156.276 18.7549C156.835 18.4398 157.261 18.0208 157.554 17.498V10.2686ZM163.892 5.44531C164.257 5.44531 164.576 5.58138 164.848 5.85352C165.12 6.12565 165.256 6.44434 165.256 6.80957C165.256 7.18197 165.12 7.50423 164.848 7.77637C164.576 8.04134 164.257 8.17383 163.892 8.17383C163.512 8.17383 163.19 8.04134 162.925 7.77637C162.66 7.51139 162.527 7.18913 162.527 6.80957C162.527 6.44434 162.66 6.12565 162.925 5.85352C163.197 5.58138 163.519 5.44531 163.892 5.44531ZM162.861 10.2686H164.912V21H162.861V10.2686ZM174.053 19.1309L174.161 20.9141C173.817 21.0573 173.43 21.1289 173.001 21.1289C171.841 21.1289 170.902 20.778 170.186 20.0762C169.477 19.3672 169.123 18.3861 169.123 17.1328V12.2021H167.039V10.2686H169.123V7.35742H171.153V10.2686H174.053V12.2021H171.153V17.0361C171.153 17.7165 171.35 18.2536 171.744 18.6475C172.138 19.0413 172.643 19.2383 173.259 19.2383C173.552 19.2383 173.817 19.2025 174.053 19.1309Z" fill="#09B48B"/>
</svg>
