<svg width="16" height="16" viewBox="0 0 14 14" fill="none" xmlns="http://www.w3.org/2000/svg">
<path d="M12.9001 0.601562H5.1001C4.82392 0.601562 4.6001 0.825387 4.6001 1.10156C4.6001 1.37774 4.82392 1.60156 5.1001 1.60156H5.5501V2.60156H1.1001C0.823923 2.60156 0.600098 2.82539 0.600098 3.10156V12.9016C0.600098 13.1777 0.823923 13.4016 1.1001 13.4016H11.9501C12.2263 13.4016 12.4501 13.1777 12.4501 12.9016V1.60156H12.9001C13.1763 1.60156 13.4001 1.37774 13.4001 1.10156C13.4001 0.825387 13.1763 0.601562 12.9001 0.601562ZM5.5501 12.4016H1.6001V3.60156H5.5501V12.4016ZM9.5001 12.4016H8.5001V10.4516H9.5001V12.4016ZM11.4501 12.4016H10.5001V9.95156C10.5001 9.67539 10.2763 9.45156 10.0001 9.45156H8.0001C7.72392 9.45156 7.5001 9.67539 7.5001 9.95156V12.4016H6.5501V1.60156H11.4501V12.4016ZM7.5751 7.73906C7.5751 7.46289 7.79892 7.23906 8.0751 7.23906H9.9251C10.2013 7.23906 10.4251 7.46289 10.4251 7.73906C10.4251 8.01524 10.2013 8.23906 9.9251 8.23906H8.0751C7.79892 8.23906 7.5751 8.01524 7.5751 7.73906ZM7.5751 5.52656C7.5751 5.25039 7.79892 5.02656 8.0751 5.02656H9.9251C10.2013 5.02656 10.4251 5.25039 10.4251 5.52656C10.4251 5.80274 10.2013 6.02656 9.9251 6.02656H8.0751C7.79892 6.02656 7.5751 5.80274 7.5751 5.52656ZM7.5751 3.31406C7.5751 3.03789 7.79892 2.81406 8.0751 2.81406H9.9251C10.2013 2.81406 10.4251 3.03789 10.4251 3.31406C10.4251 3.59024 10.2013 3.81406 9.9251 3.81406H8.0751C7.79892 3.81406 7.5751 3.59024 7.5751 3.31406ZM2.6001 5.10156C2.6001 4.82539 2.82392 4.60156 3.1001 4.60156H4.0501C4.32627 4.60156 4.5501 4.82539 4.5501 5.10156C4.5501 5.37774 4.32627 5.60156 4.0501 5.60156H3.1001C2.82392 5.60156 2.6001 5.37774 2.6001 5.10156ZM2.6001 8.00156C2.6001 7.72539 2.82392 7.50156 3.1001 7.50156H4.0501C4.32627 7.50156 4.5501 7.72539 4.5501 8.00156C4.5501 8.27774 4.32627 8.50156 4.0501 8.50156H3.1001C2.82392 8.50156 2.6001 8.27774 2.6001 8.00156ZM2.6001 10.9016C2.6001 10.6254 2.82392 10.4016 3.1001 10.4016H4.0501C4.32627 10.4016 4.5501 10.6254 4.5501 10.9016C4.5501 11.1777 4.32627 11.4016 4.0501 11.4016H3.1001C2.82392 11.4016 2.6001 11.1777 2.6001 10.9016Z" fill="#09B48B"/>
</svg>
