<svg width="16" height="16" viewBox="0 0 16 16" fill="none" xmlns="http://www.w3.org/2000/svg">
<path d="M15.6682 7.43438L8.84891 0.618616L8.39182 0.161526C8.28768 0.0580659 8.14683 0 8.00003 0C7.85323 0 7.71239 0.0580659 7.60824 0.161526L0.331861 7.43438C0.225143 7.54068 0.140803 7.66728 0.0838179 7.80671C0.0268328 7.94614 -0.0016424 8.09558 7.31515e-05 8.2462C0.00713246 8.86742 0.524227 9.36333 1.14545 9.36333H1.8955V15.1114H14.1046V9.36333H14.8705C15.1723 9.36333 15.4564 9.24509 15.67 9.03154C15.7751 8.92673 15.8584 8.80211 15.9151 8.66488C15.9717 8.52765 16.0006 8.38054 16 8.23208C16 7.93206 15.8817 7.64792 15.6682 7.43438ZM8.98833 13.8407H7.01173V10.2405H8.98833V13.8407ZM12.8339 8.09266V13.8407H10.1178V9.81689C10.1178 9.42687 9.80192 9.11096 9.41189 9.11096H6.58817C6.19814 9.11096 5.88224 9.42687 5.88224 9.81689V13.8407H3.16617V8.09266H1.47194L8.0018 1.56809L8.40947 1.97577L14.5299 8.09266H12.8339Z" fill="#758B89"/>
</svg>
