<svg width="20" height="20" viewBox="0 0 20 20" fill="none" xmlns="http://www.w3.org/2000/svg">
<path d="M12.7304 6.39564L7.18974 0.532183L6.81836 0.138958C6.73374 0.0499529 6.6193 0 6.50003 0C6.38075 0 6.26631 0.0499529 6.18169 0.138958L0.269637 6.39564C0.182929 6.48709 0.114403 6.596 0.0681021 6.71595C0.0218016 6.8359 -0.00133445 6.96446 5.94356e-05 7.09403C0.00579512 7.62845 0.425934 8.05508 0.930675 8.05508H1.54009V13H11.46V8.05508H12.0823C12.3275 8.05508 12.5583 7.95336 12.7318 7.76965C12.8173 7.67948 12.885 7.57227 12.931 7.45421C12.977 7.33616 13.0005 7.2096 13 7.08189C13 6.82378 12.9039 6.57935 12.7304 6.39564ZM7.30302 11.9069H5.69703V8.80965H7.30302V11.9069ZM10.4275 6.96194V11.9069H8.22073V8.44527C8.22073 8.10974 7.96406 7.83797 7.64716 7.83797H5.35289C5.03599 7.83797 4.77932 8.10974 4.77932 8.44527V11.9069H2.57251V6.96194H1.19595L6.50146 1.349L6.8327 1.69971L11.8055 6.96194H10.4275Z" fill="#09B48B"/>
<path d="M19.4922 7H11.5703C11.2898 7 11.0625 7.22732 11.0625 7.50781C11.0625 7.7883 11.2898 8.01562 11.5703 8.01562H12.0273V9.03125H7.50781C7.22732 9.03125 7 9.25857 7 9.53906V19.4922C7 19.7727 7.22732 20 7.50781 20H18.5273C18.8078 20 19.0352 19.7727 19.0352 19.4922V8.01562H19.4922C19.7727 8.01562 20 7.7883 20 7.50781C20 7.22732 19.7727 7 19.4922 7ZM12.0273 18.9844H8.01562V10.0469H12.0273V18.9844ZM16.0391 18.9844H15.0234V17.0039H16.0391V18.9844ZM18.0195 18.9844H17.0547V16.4961C17.0547 16.2156 16.8274 15.9883 16.5469 15.9883H14.5156C14.2351 15.9883 14.0078 16.2156 14.0078 16.4961V18.9844H13.043V8.01562H18.0195V18.9844ZM14.084 14.249C14.084 13.9685 14.3113 13.7412 14.5918 13.7412H16.4707C16.7512 13.7412 16.9785 13.9685 16.9785 14.249C16.9785 14.5295 16.7512 14.7568 16.4707 14.7568H14.5918C14.3113 14.7568 14.084 14.5295 14.084 14.249ZM14.084 12.002C14.084 11.7215 14.3113 11.4941 14.5918 11.4941H16.4707C16.7512 11.4941 16.9785 11.7215 16.9785 12.002C16.9785 12.2824 16.7512 12.5098 16.4707 12.5098H14.5918C14.3113 12.5098 14.084 12.2824 14.084 12.002ZM14.084 9.75488C14.084 9.47439 14.3113 9.24707 14.5918 9.24707H16.4707C16.7512 9.24707 16.9785 9.47439 16.9785 9.75488C16.9785 10.0354 16.7512 10.2627 16.4707 10.2627H14.5918C14.3113 10.2627 14.084 10.0354 14.084 9.75488ZM9.03125 11.5703C9.03125 11.2898 9.25857 11.0625 9.53906 11.0625H10.5039C10.7844 11.0625 11.0117 11.2898 11.0117 11.5703C11.0117 11.8508 10.7844 12.0781 10.5039 12.0781H9.53906C9.25857 12.0781 9.03125 11.8508 9.03125 11.5703ZM9.03125 14.5156C9.03125 14.2351 9.25857 14.0078 9.53906 14.0078H10.5039C10.7844 14.0078 11.0117 14.2351 11.0117 14.5156C11.0117 14.7961 10.7844 15.0234 10.5039 15.0234H9.53906C9.25857 15.0234 9.03125 14.7961 9.03125 14.5156ZM9.03125 17.4609C9.03125 17.1804 9.25857 16.9531 9.53906 16.9531H10.5039C10.7844 16.9531 11.0117 17.1804 11.0117 17.4609C11.0117 17.7414 10.7844 17.9688 10.5039 17.9688H9.53906C9.25857 17.9688 9.03125 17.7414 9.03125 17.4609Z" fill="#09B48B"/>
<path d="M17.6992 2.68377C17.1342 2.0779 16.185 2.04475 15.5792 2.60974L1.68344 15.5677C1.07757 16.1327 1.04443 17.0819 1.60941 17.6877C2.1744 18.2936 3.12357 18.3268 3.72944 17.7618L17.6252 4.8038C18.231 4.23881 18.2642 3.28964 17.6992 2.68377Z" fill="#09B48B" stroke="white" stroke-width="2"/>
</svg>
