<svg width="16" height="16" viewBox="0 0 16 16" fill="none" xmlns="http://www.w3.org/2000/svg">
<path d="M15.375 0H5.625C5.27978 0 5 0.279781 5 0.625C5 0.970219 5.27978 1.25 5.625 1.25H6.1875V2.5H0.625C0.279781 2.5 0 2.77978 0 3.125V15.375C0 15.7202 0.279781 16 0.625 16H14.1875C14.5327 16 14.8125 15.7202 14.8125 15.375V1.25H15.375C15.7202 1.25 16 0.970219 16 0.625C16 0.279781 15.7202 0 15.375 0ZM6.1875 14.75H1.25V3.75H6.1875V14.75ZM11.125 14.75H9.875V12.3125H11.125V14.75ZM13.5625 14.75H12.375V11.6875C12.375 11.3423 12.0952 11.0625 11.75 11.0625H9.25C8.90478 11.0625 8.625 11.3423 8.625 11.6875V14.75H7.4375V1.25H13.5625V14.75ZM8.71875 8.92188C8.71875 8.57666 8.99853 8.29688 9.34375 8.29688H11.6562C12.0015 8.29688 12.2812 8.57666 12.2812 8.92188C12.2812 9.26709 12.0015 9.54688 11.6562 9.54688H9.34375C8.99853 9.54688 8.71875 9.26709 8.71875 8.92188ZM8.71875 6.15625C8.71875 5.81103 8.99853 5.53125 9.34375 5.53125H11.6562C12.0015 5.53125 12.2812 5.81103 12.2812 6.15625C12.2812 6.50147 12.0015 6.78125 11.6562 6.78125H9.34375C8.99853 6.78125 8.71875 6.50147 8.71875 6.15625ZM8.71875 3.39062C8.71875 3.04541 8.99853 2.76562 9.34375 2.76562H11.6562C12.0015 2.76562 12.2812 3.04541 12.2812 3.39062C12.2812 3.73584 12.0015 4.01562 11.6562 4.01562H9.34375C8.99853 4.01562 8.71875 3.73584 8.71875 3.39062ZM2.5 5.625C2.5 5.27978 2.77978 5 3.125 5H4.3125C4.65772 5 4.9375 5.27978 4.9375 5.625C4.9375 5.97022 4.65772 6.25 4.3125 6.25H3.125C2.77978 6.25 2.5 5.97022 2.5 5.625ZM2.5 9.25C2.5 8.90478 2.77978 8.625 3.125 8.625H4.3125C4.65772 8.625 4.9375 8.90478 4.9375 9.25C4.9375 9.59522 4.65772 9.875 4.3125 9.875H3.125C2.77978 9.875 2.5 9.59522 2.5 9.25ZM2.5 12.875C2.5 12.5298 2.77978 12.25 3.125 12.25H4.3125C4.65772 12.25 4.9375 12.5298 4.9375 12.875C4.9375 13.2202 4.65772 13.5 4.3125 13.5H3.125C2.77978 13.5 2.5 13.2202 2.5 12.875Z" fill="#758B89"/>
</svg>
