<svg width="16" height="16" viewBox="0 0 16 16" fill="none" xmlns="http://www.w3.org/2000/svg">
<path d="M9.30341 3.65379V13.4869C9.30341 13.5491 9.35427 13.5999 9.41645 13.5999H10.2642C10.3264 13.5999 10.3773 13.5491 10.3773 13.4869V4.93539L12.9631 6.97436C13.0366 7.03229 13.1468 6.98001 13.1468 6.88534V5.86091C13.1468 5.79167 13.1157 5.72667 13.0606 5.68287L10.0353 3.29771C9.73861 3.06457 9.30341 3.27511 9.30341 3.65379ZM5.96871 3.31326V11.8648L3.38291 9.8258C3.30943 9.76787 3.19922 9.82015 3.19922 9.91482L3.19922 10.9393C3.19922 11.0085 3.2303 11.0735 3.28541 11.1173L6.31066 13.5024C6.60739 13.7356 7.0426 13.5251 7.0426 13.1478V3.31326C7.0426 3.25109 6.99173 3.20022 6.92955 3.20022H6.08175C6.01958 3.20022 5.96871 3.25109 5.96871 3.31326Z" fill="#4C6260"/>
</svg>
